<svg xmlns="http://www.w3.org/2000/svg" width="66.667" height="66.667" version="1.0" viewBox="0 0 50 50"><g fill="currentColor" stroke="currentColor"><path stroke-width=".0125" d="M16.125 9.125c-2.3.363-4.413 1.4-5.938 2.925-1.712 1.713-2.55 3.675-2.562 5.975 0 2.538 1 4.7 2.975 6.35.763.638.775.65.7 1.163-.088.587-.263.762-1.275 1.287-1.563.813-2.15 1.513-2.15 2.575 0 .3.137 1.038.3 1.663.162.612.45 1.775.625 2.562.712 3.088.862 3.538 1.287 4.013.7.775 1.113.9 2.775.837 1.15-.05 1.663-.125 2.488-.412l1.038-.338.624.388c1.288.787 3.075 1.037 4.863.662.65-.137 1.288-.3 1.4-.337.163-.063.263.012.375.275.088.187.188.375.225.412.038.038.263.3.488.6 1.05 1.35 2.387 1.338 4.25-.025.537-.4.662-.437.95-.325.175.063.612.125.95.125.55 0 .674-.05 1.187-.525.638-.587 1.338-1.762 1.625-2.737.225-.763.088-1.513-.325-1.738-.463-.25-1.325-.15-1.725.188-.363.3-.388.312-.463.075-.037-.125-.437-.625-.875-1.1-.787-.838-.787-.85-.487-.95.225-.088.537-.025 1.15.2 4.1 1.525 8.85-.338 10.762-4.213.6-1.2.85-2.137.963-3.487.075-.888.125-1.038.475-1.4 2.212-2.275 3.2-4.113 2.85-5.275-.163-.563-.438-.75-1.275-.913-.763-.15-2.55.138-3.738.575-.862.325-.824.338-1.637-.325-.813-.65-1.35-.937-2.588-1.362-3.4-1.15-6.95-.2-9.437 2.55l-.338.375.138-.563c.2-.887.05-2.95-.275-3.75-.525-1.325-.65-1.575-1.212-2.35-1.1-1.55-3.125-2.875-5.163-3.387-1.2-.313-2.975-.425-4-.263zm3.4.575c.263.05.475.113.475.163s-.375.15-.838.237c-.474.088-1.224.338-1.687.55-.825.375-.863.388-1.613.225a6.807 6.807 0 0 0-2.612-.088l-.688.1.376-.237c.562-.35 2.262-.9 3.187-1.025.8-.113 2.463-.063 3.4.075zm2.025.925c.7.288.75.4.112.225-.675-.188-2.337-.05-3.287.275-2.575.85-4.75 3.7-4.75 6.2 0 .3-.05.425-.15.388-.413-.138.025-2.288.687-3.45.988-1.713 2.463-2.926 4.338-3.526 1.287-.425 2.25-.462 3.05-.112zm-5.888.638.475.124-.525.425c-1.425 1.2-2.462 3.076-2.787 5.076-.075.437-.1.45-.738.524-1.512.175-2.225.575-2.65 1.5-.437.925-.425 1.8.05 2.775.425.9.775 1.238 1.513 1.5.763.263 1.988.075 2.813-.45l.587-.374.488.45c1.812 1.625 4.212 2.337 6.35 1.887.512-.113.95-.175.975-.15.025.025-.363.238-.863.475-2.838 1.363-5.963 1.375-8.763.038-1.037-.488-1.787-1.088-2.712-2.138-2.538-2.887-2.375-7.262.363-10.212 1.112-1.188 3.787-1.913 5.425-1.45zm6.975.712c1.3.6 2.7 2.3 2.988 3.638.113.562.113.875 0 1.45-.163.8-.275.775-.488-.113-.225-.95-.8-2.087-1.362-2.713-1-1.125-2.775-1.55-5.1-1.212-.75.112-1.475.237-1.613.287-.187.063-.15 0 .125-.237.575-.525 1.138-.838 2.1-1.15 1.125-.375 2.463-.363 3.35.05zM35.225 16.7c1.738.35 3 1.038 4.25 2.3.95.95 1.475 1.813 1.275 2.063-.088.1-.2.15-.263.125-.05-.038-.15.037-.225.15-.075.124-.137.162-.137.1 0-.075.062-.2.137-.275.088-.088.1-.213.038-.325-.088-.163-.288-.038-1 .637-.488.463-1.063.975-1.288 1.15-.925.725-1.087.875-.825.788.138-.038.213-.038.175.012-.05.05-.2.1-.35.138-.375.075-1.025.562-.937.7.037.062.025.112-.038.1-.237-.038-.387.025-.687.287a4.208 4.208 0 0 1-.638.475c-.187.1-.887.513-1.575.9-.675.4-1.275.725-1.337.725-.05 0-.188.075-.288.175-.112.1-.525.35-.925.563-.412.225-.887.487-1.062.612-.325.2-.325.2-.163-.012.1-.125.138-.338.088-.538-.05-.187-.038-.287.025-.25.062.038.275-.05.462-.2.263-.212.325-.337.288-.662-.038-.313 0-.388.137-.338.125.05.15.013.075-.1-.062-.112-.05-.137.05-.075.088.05.325-.037.55-.2.225-.15.613-.4.863-.525.262-.125.437-.287.4-.337-.038-.063.025-.113.125-.113s.275-.1.4-.225c.125-.112.237-.187.25-.15.012.038.212-.075.45-.25.6-.45 1.112-.787 1.5-.987.187-.1.325-.213.3-.25-.063-.1.2-.313.425-.363.1-.025.275-.125.375-.212a19.76 19.76 0 0 1 1.312-1.113c1-.787 1.563-1.425 1.563-1.775 0-.15-.5.35-.763.788-.137.225-.3.387-.35.35-.062-.025-.262.1-.462.287-.2.2-.55.475-.775.638-.225.15-.363.337-.325.412.05.075.012.113-.088.075-.087-.025-.475.188-.837.488-.65.525-1.388 1.05-1.95 1.375-.15.087-.2.162-.138.162.075 0-.15.163-.5.35-.937.525-1.187.675-1.737 1.05-.263.2-.563.35-.638.35-.087 0-.225.088-.312.188-.225.262-.375.112-.3-.288.05-.237 0-.412-.125-.512-.15-.138-.175-.213-.063-.338a.473.473 0 0 1 .313-.175c.1 0 .175-.062.175-.125 0-.075.087-.125.187-.125.113 0 .325-.125.488-.287.162-.15.375-.288.462-.313a.609.609 0 0 0 .3-.2c.075-.087.225-.187.35-.237.113-.038.213-.163.213-.275 0-.138-.188-.05-.663.312-.375.275-.737.5-.825.5-.087 0-.112.063-.062.15.05.088.037.1-.063.05-.075-.05-.325.038-.55.2a2.997 2.997 0 0 1-.462.3c-.038 0-.163.05-.288.1-.162.075-.287.013-.475-.225-.325-.412-.5-.412-.987 0-.288.25-.425.3-.538.188-.075-.075-.325-.138-.55-.138-.337 0-.437.063-.55.325-.062.188-.1.538-.087.788.037.375 0 .45-.225.487-.238.038-.275-.037-.338-.7-.05-.4-.05-.925-.012-1.162.062-.388.15-.475.737-.725.663-.288 1-.5 1.45-.913.125-.112.238-.162.263-.112.025.062.387-.125.812-.4.425-.288.738-.563.7-.625-.037-.063-.112-.038-.175.05-.062.1-.112.125-.112.075s-.113-.038-.25.037c-.138.075-.225.188-.188.25.038.075-.012.088-.112.05-.113-.05-.2-.012-.2.075 0 .075-.075.125-.15.088-.088-.025-.313.062-.5.187-.2.138-.5.275-.688.3-.2.038-.475.15-.637.25-.163.113-.375.163-.475.125-.113-.037-.15-.012-.113.05.038.075.013.125-.05.125-.075 0-.137-.087-.137-.2 0-.262.7-1.987.975-2.412.112-.175.275-.438.362-.575.075-.138.2-.238.288-.213.075.013.112-.025.062-.1C27.2 19.45 28.35 18.35 29.2 17.8a8.147 8.147 0 0 1 6.025-1.1zM16.4 17c.338.338.375.45.313.888-.125.974-1.05 1.3-1.65.587-.288-.338-.325-.488-.275-.9.137-.95.937-1.238 1.612-.575zm-3.075 1.2c.675.438 1.038 1.012 1.138 1.775.1.912-.038 1.412-.538 2.012-.512.588-.662.6-.362.013.125-.238.2-.713.212-1.238 0-.95-.325-1.75-1.025-2.487-.325-.338-.35-.4-.162-.4.137 0 .462.15.737.325zm-1.125.2c.863.588 1.288 1.8 1.038 2.975-.225 1.063-.975 1.625-1.913 1.45-.612-.113-1.012-.488-1.4-1.263-.275-.587-.325-.812-.275-1.537.025-.638.113-.95.338-1.263.562-.775 1.4-.925 2.212-.362zm32.325-.275c.6.175.775.5.675 1.225-.2 1.513-2.188 3.85-5.638 6.663-4.15 3.375-10.012 6.537-13.287 7.187-2.775.537-3.613-.188-2.488-2.2.35-.65.45-.737 1.1-1.075l.588-.3-.1.375c-.138.488.112.75.737.75 2.563 0 12.9-6.65 15.575-10.012.45-.575.576-1.175.288-1.463-.188-.187-.713-.2-1.175-.025-.262.113-.362.088-.487-.087-.225-.3-.075-.375 1.562-.813 1.438-.375 1.95-.412 2.65-.225zm-27.55 5.163c1.263.662 2.838.875 4.413.587.375-.063 1.237-.4 1.925-.75l1.25-.625L24 23c-.587.525-1.725 1.025-2.875 1.263-1.387.3-3.362-.05-4.662-.813-.813-.488-1.85-1.513-1.763-1.763.063-.15.225-.05.763.488.375.375 1.05.875 1.512 1.113zm8.025 1.7c0 1.025-.037 1.25-.2 1.312-.25.1-.2.138-.537-.488l-.275-.5.062.575.063.575-.963.213c-1.312.3-3.012.862-2.75.925.113.025 1.163-.163 2.338-.413 1.175-.25 2.187-.425 2.262-.375.063.038.125.238.125.438s.138.675.3 1.037l.3.675-.775.388c-1.262.625-2.312.987-3.662 1.262-.688.15-1.388.263-1.525.263-.15 0-.263.05-.263.112 0 .125-.5.325-1.062.438-.2.05-1.263.362-2.35.725-1.588.513-2 .613-2.088.475-.225-.363-.55-3.675-.437-4.375l.087-.5h1.038c.575 0 1.625-.113 2.337-.25 1.35-.275 2.975-.75 2.975-.875 0-.038-.525.05-1.15.213-2.2.537-4.487.7-5.675.4-.787-.2-1.425-.826-1.425-1.388 0-.238.038-.463.075-.5.038-.05.425.087.875.287 1.238.563 2.675.863 4.138.863 2.225 0 4.125-.575 6.012-1.838 1-.662 1.463-.874 1.938-.9.187-.012.212.126.212 1.226zm3.438-.238c.05.075-.038.338-.188.588-.187.312-.212.424-.075.374.55-.212 1.213-.362 1.275-.3.163.15-.062.425-.537.663l-.475.238.687.062c.375.038.675.113.675.188-.025.187-.562.437-.987.437l-.375.013.287.2c.15.1.275.274.275.387 0 .137-.1.162-.462.112-.25-.05-.488-.125-.525-.2-.038-.062-.488.188-1 .563-.5.375-.963.638-1.025.6-.213-.125-.463-.738-.588-1.388l-.112-.65.612-.124c.338-.075.7-.138.8-.138.163 0 .163-.05-.012-.375-.213-.4-.25-.95-.075-1.05.2-.125.5.063.6.388l.112.325.413-.525c.425-.525.562-.613.7-.388zm13.187 1.638c-.1.362-.337.7-.725 1.074-.575.538-3.45 2.788-3.562 2.788-.038 0-.588.325-1.225.725-2.338 1.463-3.7 1.975-4.488 1.675-.275-.1-.212-.15.813-.663.624-.3 1.35-.687 1.624-.862.926-.588 1-.625 1.313-.788.175-.075.413-.237.537-.337.126-.1.413-.3.638-.438.488-.287 1.988-1.325 2.075-1.425.038-.037.488-.387 1-.775.513-.387 1.188-.925 1.5-1.212.313-.275.575-.45.6-.4.025.063-.025.35-.1.638zm-29.825.6c.125.137.463.35.763.475l.525.212.075 1.95c.037 1.063.15 2.263.25 2.65.15.625.15.725-.013.9-.312.313-.25 1.063.113 1.338.162.124.387.237.487.237.1 0 .325.262.5.587.175.338.55.9.85 1.25.288.363.525.688.525.713 0 .1-1.162.45-1.475.45-.475 0-1.087-.713-1.2-1.375-.05-.313-.162-.85-.262-1.188-.1-.35-.325-1.212-.488-1.937-.175-.725-.537-2.25-.812-3.4-.575-2.325-.575-2.338-.363-2.788.175-.375.25-.387.525-.075zm-.912 1.512c.075.375.362 1.613.625 2.75.737 3.038 1.075 4.487 1.237 5.225.088.363.288.85.463 1.1l.3.45-1.175-.05c-1.038-.037-1.238-.087-1.613-.375-.237-.187-.5-.487-.575-.687-.237-.575-1.662-6.55-1.737-7.238-.1-.987.162-1.425 1.312-2.112l.963-.575.025.412c.025.225.1.725.175 1.1zm30.125-.263c-.488 1.013-1.138 1.888-1.925 2.576-.638.55-.938.712-.763.4.05-.088.038-.113-.025-.05-.062.062-.112.15-.1.187.025.3-1.925 1.262-2.65 1.312-.262.013-.512.063-.55.1-.1.138-1.887.225-1.8.1.038-.062.138-.112.238-.112.225 0 1.65-.725 2.162-1.1.213-.163.4-.263.4-.213 0 .038.363-.175.813-.487.45-.313.875-.575.937-.575.05 0 .125-.038.15-.1.025-.05.413-.363.875-.688.45-.325.913-.675 1.013-.775.1-.1.2-.162.225-.137.025.025.337-.25.675-.6.35-.35.637-.638.662-.625.025.013-.125.363-.337.788zM21.25 31.663c0 .262-.1.312-.688.45-.85.187-3.637 1.087-5.062 1.637-1.238.475-1.6.525-1.8.213-.25-.388.063-.588 1.738-1.163 2.362-.8 4.55-1.375 5.412-1.412.338-.013.4.025.4.275zm1.625.937c0 1.063 1.225 1.5 3.188 1.137.7-.124.75-.124.962.138.325.4.288.625-.125.625-.8 0-2.188.988-3.025 2.138-.188.275-.375.425-.4.337-.025-.075-.15-.112-.263-.062-.162.062-.174.15-.087.487.075.225.075.438.025.488-.05.037-.45.175-.887.287-3.075.838-5.738-.225-7.225-2.887l-.4-.713.9-.35c2.662-1.038 5.712-1.9 7-1.963.287-.012.337.038.337.338zm6.95 1.65c.65.763.8 1.088.725 1.488-.113.574.2.5.55-.126.525-.912 1.65-1.1 1.85-.312.15.613-.713 2.45-1.525 3.263-.375.374-.512.437-1.025.437-.725 0-.95-.163-1.15-.788-.175-.562-.612-.875-1.2-.887-.375-.013-.425-.05-.35-.263.038-.137.1-.675.138-1.187.075-1.363.1-1.438.737-1.863.638-.425.713-.4 1.25.238zm-2.388.863c.088.274-.137 1.824-.325 2.15a1.331 1.331 0 0 1-.387.412c-.45.325-.125.488.488.25.887-.35 1.662-.05 1.662.638 0 .537-1.862 1.687-2.725 1.687-.375 0-.6-.1-1-.45-.65-.55-1.45-1.938-1.35-2.337.163-.6 1.775-2.276 2.375-2.45.688-.2 1.175-.163 1.263.1z"/><path stroke-width=".0125" d="M10.525 33.612c-.363.125-.688.263-.738.313-.112.113.438 1.775.663 2.013.2.2.75.25 1.113.112.412-.163.55-.763.35-1.588-.176-.787-.338-1.087-.588-1.087a8.243 8.243 0 0 0-.8.238zM19.15 45.263c-5.412.2-9.15.587-9.575 1-.387.362 1.788.812 4.763.987 3.812.225 13.175.425 13.262.288.05-.075.225-.163.4-.213l.313-.088-.313.188c-.288.175-.125.188 1.75.125 4.825-.15 8.975-.425 10.313-.675 1.924-.35 2.037-.55.537-.925-1.713-.412-11.225-.912-11.225-.587 0 .1-.063.087-.2-.038-.163-.175-.663-.2-3.775-.175-1.975 0-4.788.063-6.25.113z"/></g></svg>