<svg version="1.0" xmlns="http://www.w3.org/2000/svg" width="50.000000pt" height="50.000000pt" viewBox="0 0 50.000000 50.000000" preserveAspectRatio="xMidYMid meet">
  <g transform="translate(0.000000,50.000000) scale(0.012500,-0.012500)" fill="current" stroke="currentColor">
    <path fill="current" stroke="currentColor"
      d="M1290 3270 c-184 -29 -353 -112 -475 -234 -137 -137 -204 -294 -205
      -478 0 -203 80 -376 238 -508 61 -51 62 -52 56 -93 -7 -47 -21 -61 -102 -103
      -125 -65 -172 -121 -172 -206 0 -24 11 -83 24 -133 13 -49 36 -142 50 -205 57
      -247 69 -283 103 -321 56 -62 89 -72 222 -67 92 4 133 10 199 33 l83 27 50
      -31 c103 -63 246 -83 389 -53 52 11 103 24 112 27 13 5 21 -1 30 -22 7 -15 15
      -30 18 -33 3 -3 21 -24 39 -48 84 -108 191 -107 340 2 43 32 53 35 76 26 14
      -5 49 -10 76 -10 44 0 54 4 95 42 51 47 107 141 130 219 18 61 7 121 -26 139
      -37 20 -106 12 -138 -15 -29 -24 -31 -25 -37 -6 -3 10 -35 50 -70 88 -63 67
      -63 68 -39 76 18 7 43 2 92 -16 328 -122 708 27 861 337 48 96 68 171 77 279
      6 71 10 83 38 112 177 182 256 329 228 422 -13 45 -35 60 -102 73 -61 12 -204
      -11 -299 -46 -69 -26 -66 -27 -131 26 -65 52 -108 75 -207 109 -272 92 -556
      16 -755 -204 l-27 -30 11 45 c16 71 4 236 -22 300 -42 106 -52 126 -97 188
      -88 124 -250 230 -413 271 -96 25 -238 34 -320 21z m272 -46 c21 -4 38 -9 38
      -13 0 -4 -30 -12 -67 -19 -38 -7 -98 -27 -135 -44 -66 -30 -69 -31 -129 -18
      -73 16 -135 18 -209 7 l-55 -8 30 19 c45 28 181 72 255 82 64 9 197 5 272 -6z
      m162 -74 c56 -23 60 -32 9 -18 -54 15 -187 4 -263 -22 -206 -68 -380 -296
      -380 -496 0 -24 -4 -34 -12 -31 -33 11 2 183 55 276 79 137 197 234 347 282
      103 34 180 37 244 9z m-471 -51 l38 -10 -42 -34 c-114 -96 -197 -246 -223
      -406 -6 -35 -8 -36 -59 -42 -121 -14 -178 -46 -212 -120 -35 -74 -34 -144 4
      -222 34 -72 62 -99 121 -120 61 -21 159 -6 225 36 l47 30 39 -36 c145 -130
      337 -187 508 -151 41 9 76 14 78 12 2 -2 -29 -19 -69 -38 -227 -109 -477 -110
      -701 -3 -83 39 -143 87 -217 171 -203 231 -190 581 29 817 89 95 303 153 434
      116z m558 -57 c104 -48 216 -184 239 -291 9 -45 9 -70 0 -116 -13 -64 -22 -62
      -39 9 -18 76 -64 167 -109 217 -80 90 -222 124 -408 97 -60 -9 -118 -19 -129
      -23 -15 -5 -12 0 10 19 46 42 91 67 168 92 90 30 197 29 268 -4z m1007 -378
      c139 -28 240 -83 340 -184 76 -76 118 -145 102 -165 -7 -8 -16 -12 -21 -10 -4
      3 -12 -3 -18 -12 -6 -10 -11 -13 -11 -8 0 6 5 16 11 22 7 7 8 17 3 26 -7 13
      -23 3 -80 -51 -39 -37 -85 -78 -103 -92 -74 -58 -87 -70 -66 -63 11 3 17 3 14
      -1 -4 -4 -16 -8 -28 -11 -30 -6 -82 -45 -75 -56 3 -5 2 -9 -3 -8 -19 3 -31 -2
      -55 -23 -14 -13 -37 -30 -51 -38 -15 -8 -71 -41 -126 -72 -54 -32 -102 -58
      -107 -58 -4 0 -15 -6 -23 -14 -9 -8 -42 -28 -74 -45 -33 -18 -71 -39 -85 -49
      -26 -16 -26 -16 -13 1 8 10 11 27 7 43 -4 15 -3 23 2 20 5 -3 22 4 37 16 21
      17 26 27 23 53 -3 25 0 31 11 27 10 -4 12 -1 6 8 -5 9 -4 11 4 6 7 -4 26 3 44
      16 18 12 49 32 69 42 21 10 35 23 32 27 -3 5 2 9 10 9 8 0 22 8 32 18 10 9 19
      15 20 12 1 -3 17 6 36 20 48 36 89 63 120 79 15 8 26 17 24 20 -5 8 16 25 34
      29 8 2 22 10 30 17 41 37 59 53 105 89 80 63 125 114 125 142 0 12 -40 -28
      -61 -63 -11 -18 -24 -31 -28 -28 -5 2 -21 -8 -37 -23 -16 -16 -44 -38 -62 -51
      -18 -12 -29 -27 -26 -33 4 -6 1 -9 -7 -6 -7 2 -38 -15 -67 -39 -52 -42 -111
      -84 -156 -110 -12 -7 -16 -13 -11 -13 6 0 -12 -13 -40 -28 -75 -42 -95 -54
      -139 -84 -21 -16 -45 -28 -51 -28 -7 0 -18 -7 -25 -15 -18 -21 -30 -9 -24 23
      4 19 0 33 -10 41 -12 11 -14 17 -5 27 6 8 18 14 25 14 8 0 14 5 14 10 0 6 7
      10 15 10 9 0 26 10 39 23 13 12 30 23 37 25 8 2 19 9 24 16 6 7 18 15 28 19 9
      3 17 13 17 22 0 11 -15 4 -53 -25 -30 -22 -59 -40 -66 -40 -7 0 -9 -5 -5 -12
      4 -7 3 -8 -5 -4 -6 4 -26 -3 -44 -16 -17 -13 -34 -23 -37 -24 -3 0 -13 -4 -23
      -8 -13 -6 -23 -1 -38 18 -26 33 -40 33 -79 0 -23 -20 -34 -24 -43 -15 -6 6
      -26 11 -44 11 -27 0 -35 -5 -44 -26 -5 -15 -8 -43 -7 -63 3 -30 0 -36 -18 -39
      -19 -3 -22 3 -27 56 -4 32 -4 74 -1 93 5 31 12 38 59 58 53 23 80 40 116 73
      10 9 19 13 21 9 2 -5 31 10 65 32 34 23 59 45 56 50 -3 5 -9 3 -14 -4 -5 -8
      -9 -10 -9 -6 0 4 -9 3 -20 -3 -11 -6 -18 -15 -15 -20 3 -6 -1 -7 -9 -4 -9 4
      -16 1 -16 -6 0 -6 -6 -10 -12 -7 -7 2 -25 -5 -40 -15 -16 -11 -40 -22 -55 -24
      -16 -3 -38 -12 -51 -20 -13 -9 -30 -13 -38 -10 -9 3 -12 1 -9 -4 3 -6 1 -10
      -4 -10 -6 0 -11 7 -11 16 0 21 56 159 78 193 9 14 22 35 29 46 6 11 16 19 23
      17 6 -1 9 2 5 8 -9 14 83 102 151 146 142 91 315 122 482 88z m-1506 -24 c27
      -27 30 -36 25 -71 -10 -78 -84 -104 -132 -47 -23 27 -26 39 -22 72 11 76 75
      99 129 46z m-246 -96 c54 -35 83 -81 91 -142 8 -73 -3 -113 -43 -161 -41 -47
      -53 -48 -29 -1 10 19 16 57 17 99 0 76 -26 140 -82 199 -26 27 -28 32 -13 32
      11 0 37 -12 59 -26z m-90 -16 c69 -47 103 -144 83 -238 -18 -85 -78 -130 -153
      -116 -49 9 -81 39 -112 101 -22 47 -26 65 -22 123 2 51 9 76 27 101 45 62 112
      74 177 29z m2586 22 c48 -14 62 -40 54 -98 -16 -121 -175 -308 -451 -533 -332
      -270 -801 -523 -1063 -575 -222 -43 -289 15 -199 176 28 52 36 59 88 86 l47
      24 -8 -30 c-11 -39 9 -60 59 -60 205 0 1032 532 1246 801 36 46 46 94 23 117
      -15 15 -57 16 -94 2 -21 -9 -29 -7 -39 7 -18 24 -6 30 125 65 115 30 156 33
      212 18z m-2204 -413 c101 -53 227 -70 353 -47 30 5 99 32 154 60 l100 50 -45
      -40 c-47 -42 -138 -82 -230 -101 -111 -24 -269 4 -373 65 -65 39 -148 121
      -141 141 5 12 18 4 61 -39 30 -30 84 -70 121 -89z m642 -136 c0 -82 -3 -100
      -16 -105 -20 -8 -16 -11 -43 39 l-22 40 5 -46 5 -46 -77 -17 c-105 -24 -241
      -69 -220 -74 9 -2 93 13 187 33 94 20 175 34 181 30 5 -3 10 -19 10 -35 0 -16
      11 -54 24 -83 l24 -54 -62 -31 c-101 -50 -185 -79 -293 -101 -55 -12 -111 -21
      -122 -21 -12 0 -21 -4 -21 -9 0 -10 -40 -26 -85 -35 -16 -4 -101 -29 -188 -58
      -127 -41 -160 -49 -167 -38 -18 29 -44 294 -35 350 l7 40 83 0 c46 0 130 9
      187 20 108 22 238 60 238 70 0 3 -42 -4 -92 -17 -176 -43 -359 -56 -454 -32
      -63 16 -114 66 -114 111 0 19 3 37 6 40 3 4 34 -7 70 -23 99 -45 214 -69 331
      -69 178 0 330 46 481 147 80 53 117 70 155 72 15 1 17 -10 17 -98z m275 19 c4
      -6 -3 -27 -15 -47 -15 -25 -17 -34 -6 -30 44 17 97 29 102 24 13 -12 -5 -34
      -43 -53 l-38 -19 55 -5 c30 -3 54 -9 54 -15 -2 -15 -45 -35 -79 -35 l-30 -1
      23 -16 c12 -8 22 -22 22 -31 0 -11 -8 -13 -37 -9 -20 4 -39 10 -42 16 -3 5
      -39 -15 -80 -45 -40 -30 -77 -51 -82 -48 -17 10 -37 59 -47 111 l-9 52 49 10
      c27 6 56 11 64 11 13 0 13 4 -1 30 -17 32 -20 76 -6 84 16 10 40 -5 48 -31 l9
      -26 33 42 c34 42 45 49 56 31z m1055 -131 c-8 -29 -27 -56 -58 -86 -46 -43
      -276 -223 -285 -223 -3 0 -47 -26 -98 -58 -187 -117 -296 -158 -359 -134 -22
      8 -17 12 65 53 50 24 108 55 130 69 74 47 80 50 105 63 14 6 33 19 43 27 10 8
      33 24 51 35 39 23 159 106 166 114 3 3 39 31 80 62 41 31 95 74 120 97 25 22
      46 36 48 32 2 -5 -2 -28 -8 -51z m-2386 -48 c10 -11 37 -28 61 -38 l42 -17 6
      -156 c3 -85 12 -181 20 -212 12 -50 12 -58 -1 -72 -25 -25 -20 -85 9 -107 13
      -10 31 -19 39 -19 8 0 26 -21 40 -47 14 -27 44 -72 68 -100 23 -29 42 -55 42
      -57 0 -8 -93 -36 -118 -36 -38 0 -87 57 -96 110 -4 25 -13 68 -21 95 -8 28
      -26 97 -39 155 -14 58 -43 180 -65 272 -46 186 -46 187 -29 223 14 30 20 31
      42 6z m-73 -121 c6 -30 29 -129 50 -220 59 -243 86 -359 99 -418 7 -29 23 -68
      37 -88 l24 -36 -94 4 c-83 3 -99 7 -129 30 -19 15 -40 39 -46 55 -19 46 -133
      524 -139 579 -8 79 13 114 105 169 l77 46 2 -33 c2 -18 8 -58 14 -88z m2410
      21 c-39 -81 -91 -151 -154 -206 -51 -44 -75 -57 -61 -32 4 7 3 9 -2 4 -5 -5
      -9 -12 -8 -15 2 -24 -154 -101 -212 -105 -21 -1 -41 -5 -44 -8 -8 -11 -151
      -18 -144 -8 3 5 11 9 19 9 18 0 132 58 173 88 17 13 32 21 32 17 0 -3 29 14
      65 39 36 25 70 46 75 46 4 0 10 3 12 8 2 4 33 29 70 55 36 26 73 54 81 62 8 8
      16 13 18 11 2 -2 27 20 54 48 28 28 51 51 53 50 2 -1 -10 -29 -27 -63z m-1581
      -274 c0 -21 -8 -25 -55 -36 -68 -15 -291 -87 -405 -131 -99 -38 -128 -42 -144
      -17 -20 31 5 47 139 93 189 64 364 110 433 113 27 1 32 -2 32 -22z m130 -75
      c0 -85 98 -120 255 -91 56 10 60 10 77 -11 26 -32 23 -50 -10 -50 -64 0 -175
      -79 -242 -171 -15 -22 -30 -34 -32 -27 -2 6 -12 9 -21 5 -13 -5 -14 -12 -7
      -39 6 -18 6 -35 2 -39 -4 -3 -36 -14 -71 -23 -246 -67 -459 18 -578 231 l-32
      57 72 28 c213 83 457 152 560 157 23 1 27 -3 27 -27z m556 -132 c52 -61 64
      -87 58 -119 -9 -46 16 -40 44 10 42 73 132 88 148 25 12 -49 -57 -196 -122
      -261 -30 -30 -41 -35 -82 -35 -58 0 -76 13 -92 63 -14 45 -49 70 -96 71 -30 1
      -34 4 -28 21 3 11 8 54 11 95 6 109 8 115 59 149 51 34 57 32 100 -19z m-191
      -69 c7 -22 -11 -146 -26 -172 -5 -10 -19 -25 -31 -33 -36 -26 -10 -39 39 -20
      71 28 133 4 133 -51 0 -43 -149 -135 -218 -135 -30 0 -48 8 -80 36 -52 44
      -116 155 -108 187 13 48 142 182 190 196 55 16 94 13 101 -8z"
    />
    <path fill="current" stroke="currentColor" d="M842 1311 c-29 -10 -55 -21 -59 -25 -9 -9 35 -142 53 -161 16 -16 60
    -20 89 -9 33 13 44 61 28 127 -14 63 -27 87 -47 87 -6 -1 -35 -9 -64 -19z"/>
    <path fill="current" stroke="currentColor" d="M1532 379 c-433 -16 -732 -47 -766 -80 -31 -29 143 -65 381 -79 305
    -18 1054 -34 1061 -23 4 6 18 13 32 17 l25 7 -25 -15 c-23 -14 -10 -15 140
    -10 386 12 718 34 825 54 154 28 163 44 43 74 -137 33 -898 73 -898 47 0 -8
    -5 -7 -16 3 -13 14 -53 16 -302 14 -158 0 -383 -5 -500 -9z"/>
  </g>
</svg>
